<?xml version="1.0" encoding="utf-8"?>
<!-- Generator: Adobe Illustrator 22.0.1, SVG Export Plug-In . SVG Version: 6.00 Build 0)  -->
<svg version="1.1" id="Capa_1" xmlns="http://www.w3.org/2000/svg" xmlns:xlink="http://www.w3.org/1999/xlink" x="0px" y="0px"
	 viewBox="0 0 62 54.5" style="enable-background:new 0 0 62 54.5;" xml:space="preserve">
<style type="text/css">
	.st0{fill:#00B1D3;}
</style>
<g>
	<path class="st0" d="M62,53.1c-0.5,1.1-1.3,1.3-2.4,1.3c-15.4,0-30.8,0-46.2,0c-1.7,0-2.3-0.6-2.3-2.3c0-1.4,0-2.7,0-4.1
		c0-0.8,0-0.8,0.9-0.8c12.3,0,24.6,0,36.9,0c1.9,0,3.4-0.6,4.7-1.9c3.5-3.4,6-7.4,8-11.9c0.2-0.3,0.2-0.7,0.5-1
		C62,39.3,62,46.2,62,53.1z"/>
	<path class="st0" d="M62,10.9c-16.7,0-33.5,0-50.2,0c-0.6,0-0.8-0.1-0.8-0.7c0.1-1.5,0-3,0-4.5c0-1.3,0.7-2,2-2c2.8,0,5.6,0,8.4,0
		c0.5,0,0.6-0.1,0.6-0.6c0-0.4,0-0.8,0-1.3c0-1,0.8-1.8,1.8-1.8c1,0,1.8,0.8,1.8,1.8c0,0.5,0,1,0,1.5c0,0.3,0.1,0.4,0.4,0.4
		c2.8,0,5.6,0,8.4,0c0.3,0,0.4-0.1,0.4-0.4c0-0.5,0-1,0-1.5c0-1,0.8-1.8,1.8-1.8c1,0,1.8,0.7,1.9,1.8c0,0.5,0,1,0,1.5
		c0,0.3,0.1,0.4,0.4,0.4c2.8,0,5.6,0,8.4,0c0.3,0,0.4-0.1,0.4-0.4c0-0.5,0-0.9,0-1.4c0-1,0.8-1.8,1.8-1.8c1,0,1.8,0.8,1.8,1.8
		c0,0.4,0,0.8,0,1.3c0,0.4,0.1,0.5,0.5,0.5c2.7,0,5.3,0,8,0c1.1,0,1.9,0.3,2.4,1.3C62,6.9,62,8.9,62,10.9z"/>
	<path class="st0" d="M36.4,14.5c8.3,0,16.5,0,24.8,0c0.5,0,0.7,0.1,0.6,0.7c-0.4,7.6-2.2,14.8-6.2,21.4c-1.4,2.3-3,4.4-4.9,6.2
		c-0.6,0.5-1.2,0.8-2,0.8c-15.6,0-31.1,0-46.7,0c-0.6,0-1.2-0.1-1.6-0.5c-0.7-0.7-0.7-1.8,0-2.6c6.2-6.2,9.1-13.8,10.1-22.3
		c0.1-1,0.2-2,0.2-3c0-0.5,0.2-0.6,0.7-0.6C19.9,14.5,28.2,14.5,36.4,14.5z"/>
</g>
<g>
</g>
<g>
</g>
<g>
</g>
<g>
</g>
<g>
</g>
<g>
</g>
<g>
</g>
<g>
</g>
<g>
</g>
<g>
</g>
<g>
</g>
<g>
</g>
<g>
</g>
<g>
</g>
<g>
</g>
</svg>
