<?xml version="1.0" encoding="utf-8"?>
<!-- Generator: Adobe Illustrator 22.0.1, SVG Export Plug-In . SVG Version: 6.00 Build 0)  -->
<svg version="1.1" id="Capa_1" xmlns="http://www.w3.org/2000/svg" xmlns:xlink="http://www.w3.org/1999/xlink" x="0px" y="0px"
	 viewBox="0 0 22 23.9" style="enable-background:new 0 0 22 23.9;" xml:space="preserve">
<style type="text/css">
	.st0{fill:#FFFFFF;}
</style>
<g>
	<path class="st0" d="M16.2,19.1c0.2,0.5,0.3,1.1,0.5,1.6c0.2,0.5,0.2,0.5-0.4,0.5c-4.5,0-9.1,0-13.6,0c-0.9,0-1.7-0.3-2.2-1
		c-0.4-0.5-0.5-1-0.5-1.6c0-4.9,0-9.8,0-14.7C0,3.4,0,3,0,2.5C0,1.2,1.1,0.1,2.5,0c0.1,0,0.1,0,0.2,0c5.5,0,11,0,16.6,0
		c1.3,0,2.3,0.7,2.6,1.9C22,2.1,22,2.4,22,2.6c0,7,0,14,0,21.1c0,0.1,0,0.2,0,0.2C20,22.4,18.1,20.7,16.2,19.1z M12.9,5.9
		C14,6.2,15,6.6,15.9,7.3c-1.6-0.7-3.2-1.1-4.9-1.1c-1.7,0-3.3,0.4-4.9,1.1C7,6.5,8,6.1,9.1,5.8C9,5.6,8.9,5.7,8.8,5.7
		C7.6,5.8,6.6,6.2,5.7,6.8C5.6,6.9,5.5,7,5.4,7.1c-1,2-1.6,4.1-1.7,6.4c0,0.4,0.1,0.7,0.4,0.9c0.9,0.9,2.1,1.3,3.3,1.3
		c0.1,0,0.1,0,0.1-0.1c0.3-0.3,0.5-0.6,0.8-0.9c-1.2-0.5-1.9-0.9-2.1-1.4c3.2,1.7,6.4,1.8,9.6,0c-0.1,0.1-0.2,0.2-0.3,0.3
		c-0.5,0.4-1,0.7-1.6,0.9c-0.2,0.1-0.2,0.1-0.1,0.3c0.2,0.2,0.4,0.4,0.5,0.7c0.1,0.1,0.2,0.2,0.4,0.2c1.4-0.1,2.6-0.6,3.5-1.6
		c0.1-0.1,0.2-0.2,0.2-0.4c-0.1-2.4-0.7-4.6-1.8-6.7c0-0.1-0.1-0.1-0.1-0.2c-1-0.7-2-1.1-3.2-1.2C13.1,5.7,13,5.7,12.9,5.9z"/>
	<path class="st0" d="M10,11.4c0,0.7-0.6,1.3-1.3,1.3c-0.7,0-1.3-0.6-1.3-1.3c0-0.7,0.6-1.3,1.3-1.3C9.4,10.1,10,10.7,10,11.4z"/>
	<path class="st0" d="M12,11.4c0-0.7,0.6-1.3,1.3-1.3c0.7,0,1.3,0.6,1.3,1.3c0,0.7-0.6,1.3-1.3,1.3C12.6,12.8,12,12.2,12,11.4z"/>
</g>
<g>
</g>
<g>
</g>
<g>
</g>
<g>
</g>
<g>
</g>
<g>
</g>
<g>
</g>
<g>
</g>
<g>
</g>
<g>
</g>
<g>
</g>
<g>
</g>
<g>
</g>
<g>
</g>
<g>
</g>
</svg>
