<?xml version="1.0" encoding="utf-8"?>
<!-- Generator: Adobe Illustrator 22.0.1, SVG Export Plug-In . SVG Version: 6.00 Build 0)  -->
<svg version="1.1" id="Capa_1" xmlns="http://www.w3.org/2000/svg" xmlns:xlink="http://www.w3.org/1999/xlink" x="0px" y="0px"
	 viewBox="0 0 22 23.9" style="enable-background:new 0 0 22 23.9;" xml:space="preserve">
<style type="text/css">
	.st0{fill:#FFFFFF;}
</style>
<g>
	<path class="st0" d="M19.6,23c-1.5,0-3,0-4.5,0c0-2.4,0-4.9,0-7.3c0-0.2,0-0.2,0.2-0.2c0.5,0,1.1,0,1.6,0c0.2,0,0.2-0.1,0.3-0.2
		c0.4-1,0.8-1.9,1.1-2.8c0-0.1,0.1-0.2,0.1-0.4c-0.1,0-0.2,0-0.2,0c-1,0-2,0-2.9,0c-0.2,0-0.2-0.1-0.2-0.2c0-0.8,0-1.6,0-2.4
		c0-0.5,0.2-0.7,0.7-0.8c0.1,0,0.2,0,0.3,0c0.5,0,1.1,0,1.6,0c0.1,0,0.2,0,0.2-0.2c0-1,0-2,0-3.1c0-0.2-0.1-0.2-0.2-0.2
		c-0.8,0-1.7,0-2.5,0c-0.3,0-0.7,0-1,0.1C12.3,5.7,11,7.3,11,9.3c0,0.8,0,1.6,0,2.5c0,0.2,0,0.2-0.2,0.2c-0.8,0-1.6,0-2.4,0
		c-0.1,0-0.2,0-0.2,0.2c0,1,0,2,0,3.1c0,0.2,0,0.2,0.2,0.2c0.8,0,1.5,0,2.3,0c0.2,0,0.2,0,0.2,0.2c0,2.4,0,4.9,0,7.3
		c-2.9,0-5.7,0-8.6,0c0,0,0,0-0.1,0C1.2,22.8,0,21.7,0,20.1C0,14.7,0,9.3,0,3.9c0-0.3,0-0.5,0.1-0.7C0.4,1.8,1.5,1,2.8,1
		c4.4,0,8.8,0,13.2,0c1.1,0,2.1,0,3.2,0c1.2,0,2.2,0.7,2.6,1.9C21.9,3,22,3.2,22,3.4c0,5.7,0,11.5,0,17.2c0,0,0,0.1,0,0.1
		c-0.2,1.1-0.8,1.8-1.8,2.2C20,22.9,19.8,22.9,19.6,23z"/>
</g>
<g>
</g>
<g>
</g>
<g>
</g>
<g>
</g>
<g>
</g>
<g>
</g>
<g>
</g>
<g>
</g>
<g>
</g>
<g>
</g>
<g>
</g>
<g>
</g>
<g>
</g>
<g>
</g>
<g>
</g>
</svg>
