<?xml version="1.0" encoding="utf-8"?>
<!-- Generator: Adobe Illustrator 22.0.1, SVG Export Plug-In . SVG Version: 6.00 Build 0)  -->
<svg version="1.1" id="Capa_1" xmlns="http://www.w3.org/2000/svg" xmlns:xlink="http://www.w3.org/1999/xlink" x="0px" y="0px"
	 viewBox="0 0 103.1 133.2" style="enable-background:new 0 0 103.1 133.2;" xml:space="preserve">
<style type="text/css">
	.st0{fill:#00174B;}
	.st1{fill:#00B1D3;}
</style>
<g>
	<g>
		<g>
			<g>
				<g>
					<path class="st0" d="M82.5,105.1v-7.8H66.7c-1.6,0-3,0.6-4.2,1.7c-1.2,1.2-1.7,2.6-1.7,4.2c0,1.4,0.4,2.7,1.3,3.7h14.8
						C78.9,106.9,80.9,106.3,82.5,105.1z"/>
				</g>
				<g>
					<path class="st0" d="M46.9,103.2c0-5.5,1.9-10.2,5.8-14c-2.5-3.4-3.8-7.3-3.8-11.7c0-5.5,1.9-10.2,5.8-14
						c3.9-3.9,8.5-5.8,14-5.8h17.9V20.4c0-5.4-4.4-9.8-9.8-9.8H33c-5.4,0-9.8,4.4-9.8,9.8v20.1c3.9,3.7,8.7,5.5,14.1,5.5
						c4.4,0,8.3-1.2,11.7-3.6V32.1H36.5V18.3H63v30.3c-7,7.5-15.5,11.2-25.6,11.2c-5.1,0-9.8-1-14.1-2.9v40.2c0,5.4,4.4,9.8,9.8,9.8
						h14.1C47,105.8,46.9,104.5,46.9,103.2z"/>
				</g>
				<g>
					<path class="st0" d="M64.4,73.3c-1.2,1.2-1.7,2.6-1.7,4.2c0,1.6,0.6,3,1.7,4.2c1.2,1.2,2.6,1.7,4.2,1.7h13.9V71.5H68.6
						C67,71.5,65.6,72.1,64.4,73.3z"/>
				</g>
			</g>
		</g>
		<g>
			<g>
				<path class="st1" d="M37.4,4.4c-5.8,0-10.7,2-14.7,6.1c-4.1,4.1-6.1,9-6.1,14.7c0,5.8,2,10.7,6.1,14.7c4.1,4.1,9,6.1,14.7,6.1
					c4.4,0,8.3-1.2,11.7-3.6V32.1H36.4V18.3H63v30.1c5.8-6,9.3-14.2,9.3-23.2c0-9.6-4.1-18.3-10.6-24.4l-9.7,9.7
					C48,6.4,43.1,4.4,37.4,4.4z"/>
			</g>
		</g>
	</g>
	<g>
		<g>
			<path class="st1" d="M13.2,130.1c-1.5,1.6-3.2,2.4-5.3,2.4c-2,0-3.7-0.7-5.1-2.1c-1.4-1.4-2.1-3.1-2.1-5.1c0-2,0.7-3.7,2.1-5.1
				c1.4-1.4,3.1-2.1,5.1-2.1c2,0,3.7,0.7,5.1,2.1l-2.1,2.1c-0.9-0.8-1.9-1.3-3.1-1.3c-1.2,0-2.2,0.4-3.1,1.3
				c-0.9,0.9-1.3,1.9-1.3,3.1c0,1.2,0.4,2.2,1.3,3.1c0.9,0.9,1.9,1.3,3.1,1.3c0.9,0,1.7-0.3,2.5-0.8v-2.1H7.7v-2.9h5.5V130.1z"/>
			<path class="st1" d="M23.8,131.9c-0.8,0.4-1.6,0.5-2.5,0.5c-1.6,0-3-0.6-4.1-1.7c-1.1-1.1-1.7-2.5-1.7-4.1c0-1.6,0.6-3,1.7-4.1
				c1.1-1.1,2.5-1.7,4.1-1.7c0.9,0,1.7,0.2,2.5,0.5v-0.1h2.9V132h-2.9V131.9z M23.8,128.1v-3c-0.1-0.2-0.3-0.4-0.4-0.5
				c-0.6-0.6-1.3-0.8-2.1-0.8c-0.8,0-1.5,0.3-2.1,0.8c-0.6,0.6-0.8,1.2-0.8,2.1c0,0.8,0.3,1.5,0.8,2c0.6,0.6,1.2,0.9,2.1,0.9
				c0.8,0,1.5-0.3,2.1-0.9C23.5,128.5,23.7,128.3,23.8,128.1z"/>
			<path class="st1" d="M41.2,125.1v6.9h-2.9v-5.4c0-0.8-0.3-1.5-0.9-2.1c-0.6-0.6-1.3-0.8-2-0.8c-0.8,0-1.5,0.3-2.1,0.8
				c-0.2,0.2-0.3,0.3-0.4,0.5v6.9H30v-10.8h2.9v0.1c0.8-0.4,1.6-0.5,2.5-0.5c1.6,0,3,0.6,4.1,1.7c1.2-1.2,2.5-1.7,4.1-1.7
				c1.6,0,3,0.6,4.1,1.7c1.1,1.1,1.7,2.5,1.7,4.1v5.4h-2.9v-5.4c0-0.8-0.3-1.5-0.8-2c-0.6-0.6-1.2-0.9-2.1-0.9c-0.8,0-1.5,0.3-2,0.8
				C41.5,124.7,41.3,124.9,41.2,125.1z"/>
			<path class="st1" d="M56.6,129.4c0.2,0.1,0.5,0.1,0.7,0.1c0.8,0,1.5-0.3,2.1-0.9c0.1-0.1,0.3-0.3,0.4-0.5l2.4,1.6
				c-0.2,0.3-0.5,0.6-0.8,0.9c-1.1,1.1-2.5,1.7-4.1,1.7c-1.6,0-3-0.6-4.1-1.7c-1.1-1.1-1.7-2.5-1.7-4.1c0-1.6,0.6-3,1.7-4.1
				c1.1-1.1,2.5-1.7,4.1-1.7c1.6,0,3,0.6,4.1,1.7c0.4,0.4,0.7,0.8,0.9,1.2L56.6,129.4z M58.1,123.8c-0.2-0.1-0.5-0.1-0.8-0.1
				c-0.8,0-1.5,0.3-2,0.8c-0.6,0.6-0.9,1.2-0.9,2.1c0,0.3,0,0.5,0.1,0.7L58.1,123.8z"/>
		</g>
		<g>
			<path class="st0" d="M70,132c-1.1,0-2.1-0.4-2.9-1.2c-0.8-0.8-1.2-1.8-1.2-2.9c0-1.1,0.4-2.1,1.2-2.9c-0.5-0.7-0.8-1.5-0.8-2.5
				c0-1.1,0.4-2.1,1.2-2.9c0.8-0.8,1.8-1.2,2.9-1.2h5.8V132H70z M70.4,121.2c-0.3,0-0.6,0.1-0.9,0.4c-0.2,0.2-0.4,0.5-0.4,0.9
				c0,0.3,0.1,0.6,0.4,0.9c0.2,0.2,0.5,0.4,0.9,0.4h2.9v-2.5H70.4z M70,126.6c-0.3,0-0.6,0.1-0.9,0.4c-0.2,0.2-0.4,0.5-0.4,0.9
				c0,0.3,0.1,0.6,0.4,0.9c0.2,0.2,0.5,0.4,0.9,0.4h3.3v-2.5H70z"/>
			<path class="st0" d="M88.2,122.5c1.1,1.1,1.7,2.5,1.7,4.1c0,1.6-0.6,3-1.7,4.1c-1.1,1.1-2.5,1.7-4.1,1.7s-3-0.6-4.1-1.7
				c-1.1-1.1-1.7-2.5-1.7-4.1c0-1.6,0.6-3,1.7-4.1c1.1-1.1,2.5-1.7,4.1-1.7S87,121.4,88.2,122.5z M84.1,123.7
				c-0.8,0-1.5,0.3-2.1,0.8c-0.6,0.6-0.8,1.2-0.8,2.1c0,0.8,0.3,1.5,0.8,2c0.6,0.6,1.2,0.9,2.1,0.9c0.8,0,1.5-0.3,2-0.9
				c0.6-0.6,0.9-1.3,0.9-2c0-0.8-0.3-1.5-0.9-2.1C85.5,124,84.9,123.7,84.1,123.7z"/>
			<path class="st0" d="M98.8,132l-2.1-2.9l-2.1,2.9H91l3.9-5.3l-4-5.4h3.6l2.2,3l2.2-3h3.6l-4,5.4l3.9,5.3H98.8z"/>
		</g>
	</g>
</g>
<g>
</g>
<g>
</g>
<g>
</g>
<g>
</g>
<g>
</g>
<g>
</g>
<g>
</g>
<g>
</g>
<g>
</g>
<g>
</g>
<g>
</g>
<g>
</g>
<g>
</g>
<g>
</g>
<g>
</g>
</svg>
