<?xml version="1.0" encoding="utf-8"?>
<!-- Generator: Adobe Illustrator 22.0.1, SVG Export Plug-In . SVG Version: 6.00 Build 0)  -->
<svg version="1.1" id="Capa_1" xmlns="http://www.w3.org/2000/svg" xmlns:xlink="http://www.w3.org/1999/xlink" x="0px" y="0px"
	 viewBox="0 0 42.4 54.5" style="enable-background:new 0 0 42.4 54.5;" xml:space="preserve">
<style type="text/css">
	.st0{fill:#00B1D3;}
</style>
<g>
	<g>
		<path class="st0" d="M0,21.4c0-10.2,7.1-18.9,17-21c11.6-2.4,23.1,5.4,25.1,17c0.9,5,0,9.7-2,14.2c-2.1,4.8-5.1,9.1-8.5,13
			c-3,3.5-6.3,6.7-9.9,9.6c-0.3,0.2-0.4,0.3-0.8,0.1C14.3,48.9,8.5,42.8,4.2,35.4c-2-3.5-3.5-7.3-4.1-11.3C0.1,23.2,0,22.2,0,21.4z
			 M21.3,31.4c5.5,0,10.1-4.5,10.1-10.1c0-5.6-4.5-10.1-10-10.2c-5.6,0-10.2,4.5-10.2,10.1C11.1,26.8,15.7,31.4,21.3,31.4z"/>
	</g>
</g>
<g>
</g>
<g>
</g>
<g>
</g>
<g>
</g>
<g>
</g>
<g>
</g>
<g>
</g>
<g>
</g>
<g>
</g>
<g>
</g>
<g>
</g>
<g>
</g>
<g>
</g>
<g>
</g>
<g>
</g>
</svg>
