<?xml version="1.0" encoding="utf-8"?>
<!-- Generator: Adobe Illustrator 22.0.1, SVG Export Plug-In . SVG Version: 6.00 Build 0)  -->
<svg version="1.1" id="Capa_1" xmlns="http://www.w3.org/2000/svg" xmlns:xlink="http://www.w3.org/1999/xlink" x="0px" y="0px"
	 viewBox="0 0 14.4 18.5" style="enable-background:new 0 0 14.4 18.5;" xml:space="preserve">
<style type="text/css">
	.st0{fill:#FFFFFF;}
</style>
<g>
	<g>
		<path class="st0" d="M0,7.2c0-3.5,2.4-6.4,5.8-7.1c3.9-0.8,7.8,1.8,8.5,5.7c0.3,1.7,0,3.3-0.7,4.8c-0.7,1.6-1.7,3.1-2.9,4.4
			c-1,1.2-2.1,2.3-3.4,3.3c-0.1,0.1-0.2,0.1-0.3,0c-2.2-1.8-4.2-3.9-5.6-6.4c-0.7-1.2-1.2-2.5-1.4-3.8C0,7.8,0,7.5,0,7.2z M7.2,10.6
			c1.9,0,3.4-1.5,3.4-3.4c0-1.9-1.5-3.4-3.4-3.4c-1.9,0-3.5,1.5-3.5,3.4C3.8,9.1,5.3,10.6,7.2,10.6z"/>
	</g>
</g>
<g>
</g>
<g>
</g>
<g>
</g>
<g>
</g>
<g>
</g>
<g>
</g>
<g>
</g>
<g>
</g>
<g>
</g>
<g>
</g>
<g>
</g>
<g>
</g>
<g>
</g>
<g>
</g>
<g>
</g>
</svg>
