<?xml version="1.0" encoding="utf-8"?>
<!-- Generator: Adobe Illustrator 22.0.1, SVG Export Plug-In . SVG Version: 6.00 Build 0)  -->
<svg version="1.1" id="Capa_1" xmlns="http://www.w3.org/2000/svg" xmlns:xlink="http://www.w3.org/1999/xlink" x="0px" y="0px"
	 viewBox="0 0 22 23.9" style="enable-background:new 0 0 22 23.9;" xml:space="preserve">
<style type="text/css">
	.st0{fill:#FFFFFF;}
</style>
<g>
	<path class="st0" d="M16.4,23c-3.6,0-7.2,0-10.8,0c-0.5-0.1-0.9-0.1-1.4-0.3C1.7,21.8,0,19.6,0,16.9c0-3.3,0-6.6,0-9.9
		c0-1,0.2-2,0.8-2.9C2,2.1,3.8,1,6.1,1c3.2,0,6.5,0,9.7,0c0.4,0,0.8,0,1.2,0.1c2.5,0.6,4,2.1,4.7,4.5c0.1,0.3,0.1,0.7,0.2,1
		c0,3.6,0,7.2,0,10.8c0,0.2-0.1,0.5-0.1,0.7c-0.6,2.5-2.1,4-4.5,4.7C17.1,22.9,16.7,22.9,16.4,23z M5,12c0,3.3,2.7,6,6,6
		c3.3,0,6-2.7,6.1-6c0-3.3-2.7-6-6-6C7.7,5.9,5,8.6,5,12z M19.2,5.6c0-1-0.8-1.8-1.8-1.8c-1,0-1.8,0.8-1.8,1.8c0,1,0.8,1.8,1.8,1.8
		C18.4,7.4,19.2,6.6,19.2,5.6z"/>
	<path class="st0" d="M11,16.7c-2.6,0-4.7-2.1-4.7-4.7c0-2.6,2.1-4.7,4.7-4.7c2.6,0,4.7,2.1,4.7,4.7C15.7,14.6,13.6,16.7,11,16.7z"
		/>
	<path class="st0" d="M17.9,5.6c0,0.3-0.2,0.5-0.5,0.5c-0.3,0-0.5-0.3-0.5-0.5c0-0.3,0.2-0.5,0.5-0.5C17.7,5,17.9,5.3,17.9,5.6z"/>
</g>
<g>
</g>
<g>
</g>
<g>
</g>
<g>
</g>
<g>
</g>
<g>
</g>
<g>
</g>
<g>
</g>
<g>
</g>
<g>
</g>
<g>
</g>
<g>
</g>
<g>
</g>
<g>
</g>
<g>
</g>
</svg>
