<?xml version="1.0" encoding="utf-8"?>
<!-- Generator: Adobe Illustrator 22.0.1, SVG Export Plug-In . SVG Version: 6.00 Build 0)  -->
<svg version="1.1" id="Capa_1" xmlns="http://www.w3.org/2000/svg" xmlns:xlink="http://www.w3.org/1999/xlink" x="0px" y="0px"
	 viewBox="0 0 310.2 97.8" style="enable-background:new 0 0 310.2 97.8;" xml:space="preserve">
<style type="text/css">
	.st0{fill:#FFFFFF;}
	.st1{fill:#00174B;}
	.st2{fill:#F5F5F5;}
	.st3{fill:#00B1D3;}
</style>
<g>
	<g>
		<path class="st0" d="M124.2,97.8c-27.5,0-53-2.3-73.8-6.7C18.3,84.3,1,73.1,0,58.8c-0.9-14.3,14.9-27.6,45.8-38.4
			C74,10.6,111.7,3.7,152,1.1s78.6-0.6,107.8,5.6c32,6.8,49.4,17.9,50.3,32.2c0.9,14.3-14.9,27.6-45.8,38.4
			c-28.2,9.9-65.9,16.7-106.2,19.3C146.6,97.4,135.2,97.8,124.2,97.8z M186.1,12c-10.8,0-22,0.4-33.3,1.1
			c-39.3,2.5-75.9,9.2-103,18.7C21.3,41.8,11.6,52.2,12,58.1c0.4,5.9,11.3,15,40.8,21.3c28.1,6,65.3,7.9,104.6,5.4
			c88.7-5.7,141.7-30,140.8-45c-0.4-5.9-11.3-15-40.8-21.3C237.3,14.2,212.8,12,186.1,12z"/>
	</g>
	<g>
		
			<ellipse transform="matrix(0.9979 -6.406759e-02 6.406759e-02 0.9979 -2.8131 10.0373)" class="st1" cx="155.1" cy="48.9" rx="149.4" ry="41.9"/>
	</g>
	<g>
		<g>
			<g>
				<g>
					<path class="st2" d="M167.6,59.5v-3.2h-6.4c-0.7,0-1.2,0.2-1.7,0.7c-0.5,0.5-0.7,1-0.7,1.7c0,0.6,0.2,1.1,0.5,1.5h6
						C166.2,60.2,167,59.9,167.6,59.5z"/>
				</g>
				<g>
					<path class="st2" d="M153.2,58.7c0-2.2,0.8-4.1,2.3-5.7c-1-1.4-1.5-2.9-1.5-4.7c0-2.2,0.8-4.1,2.3-5.7c1.6-1.6,3.5-2.3,5.7-2.3
						h7.3V25.2c0-2.2-1.8-4-4-4h-17.7c-2.2,0-4,1.8-4,4v8.1c1.6,1.5,3.5,2.2,5.7,2.2c1.8,0,3.4-0.5,4.7-1.5v-4.1H149v-5.6h10.7v12.3
						c-2.8,3-6.3,4.6-10.4,4.6c-2.1,0-4-0.4-5.7-1.2v16.3c0,2.2,1.8,4,4,4h5.7C153.2,59.7,153.2,59.2,153.2,58.7z"/>
				</g>
				<g>
					<path class="st2" d="M160.3,46.6c-0.5,0.5-0.7,1-0.7,1.7c0,0.7,0.2,1.2,0.7,1.7c0.5,0.5,1,0.7,1.7,0.7h5.6v-4.8H162
						C161.4,45.9,160.8,46.1,160.3,46.6z"/>
				</g>
			</g>
			<g>
				<g>
					<path class="st3" d="M149.4,18.7c-2.3,0-4.3,0.8-6,2.5c-1.6,1.6-2.5,3.6-2.5,5.9c0,2.3,0.8,4.3,2.5,6c1.6,1.6,3.6,2.5,6,2.5
						c1.8,0,3.4-0.5,4.8-1.5v-4.1H149v-5.6h10.8v12.2c2.3-2.4,3.8-5.7,3.8-9.4c0-3.9-1.6-7.4-4.3-9.9l-3.9,3.9
						C153.7,19.5,151.7,18.7,149.4,18.7z"/>
				</g>
			</g>
		</g>
		<g>
			<g>
				<g>
					<path class="st3" d="M116.8,78.2c-1.5,1.6-3.2,2.4-5.3,2.4c-2,0-3.7-0.7-5.1-2.1c-1.4-1.4-2.1-3.1-2.1-5.1c0-2,0.7-3.7,2.1-5.1
						c1.4-1.4,3.1-2.1,5.1-2.1c2,0,3.7,0.7,5.1,2.1l-2.1,2.1c-0.9-0.8-1.9-1.3-3.1-1.3c-1.2,0-2.2,0.4-3.1,1.3
						c-0.9,0.9-1.3,1.9-1.3,3.1c0,1.2,0.4,2.2,1.3,3.1c0.9,0.9,1.9,1.3,3.1,1.3c0.9,0,1.7-0.3,2.5-0.8v-2.1h-2.6v-2.9h5.5V78.2z"/>
				</g>
				<g>
					<path class="st3" d="M127.3,80c-0.8,0.4-1.6,0.5-2.5,0.5c-1.6,0-3-0.6-4.1-1.7c-1.1-1.1-1.7-2.5-1.7-4.1c0-1.6,0.6-3,1.7-4.1
						c1.1-1.1,2.5-1.7,4.1-1.7c0.9,0,1.7,0.2,2.5,0.5v-0.1h2.9v10.8h-2.9V80z M127.3,76.2v-3c-0.1-0.2-0.3-0.4-0.4-0.5
						c-0.6-0.6-1.3-0.8-2.1-0.8c-0.8,0-1.5,0.3-2.1,0.8c-0.6,0.6-0.8,1.2-0.8,2.1c0,0.8,0.3,1.5,0.8,2c0.6,0.6,1.2,0.9,2.1,0.9
						c0.8,0,1.5-0.3,2.1-0.9C127.1,76.6,127.2,76.4,127.3,76.2z"/>
				</g>
				<g>
					<path class="st3" d="M144.7,73.2v6.9h-2.9v-5.4c0-0.8-0.3-1.5-0.9-2.1c-0.6-0.6-1.3-0.8-2-0.8c-0.8,0-1.5,0.3-2.1,0.8
						c-0.2,0.2-0.3,0.3-0.4,0.5v6.9h-2.9V69.3h2.9v0.1c0.8-0.4,1.6-0.5,2.5-0.5c1.6,0,3,0.6,4.1,1.7c1.2-1.2,2.5-1.7,4.1-1.7
						s3,0.6,4.1,1.7c1.1,1.1,1.7,2.5,1.7,4.1v5.4h-2.9v-5.4c0-0.8-0.3-1.5-0.8-2c-0.6-0.6-1.2-0.9-2.1-0.9c-0.8,0-1.5,0.3-2,0.8
						C145,72.8,144.9,73,144.7,73.2z"/>
				</g>
				<g>
					<path class="st3" d="M160.1,77.5c0.2,0.1,0.5,0.1,0.7,0.1c0.8,0,1.5-0.3,2.1-0.9c0.1-0.1,0.3-0.3,0.4-0.5l2.4,1.6
						c-0.2,0.3-0.5,0.6-0.8,0.9c-1.1,1.1-2.5,1.7-4.1,1.7c-1.6,0-3-0.6-4.1-1.7c-1.1-1.1-1.7-2.5-1.7-4.1c0-1.6,0.6-3,1.7-4.1
						c1.1-1.1,2.5-1.7,4.1-1.7c1.6,0,3,0.6,4.1,1.7c0.4,0.4,0.7,0.8,0.9,1.2L160.1,77.5z M161.6,71.9c-0.2-0.1-0.5-0.1-0.8-0.1
						c-0.8,0-1.5,0.3-2,0.8c-0.6,0.6-0.9,1.2-0.9,2.1c0,0.3,0,0.5,0.1,0.7L161.6,71.9z"/>
				</g>
			</g>
			<g>
				<g>
					<path class="st2" d="M173.5,80.1c-1.1,0-2.1-0.4-2.9-1.2c-0.8-0.8-1.2-1.8-1.2-2.9c0-1.1,0.4-2.1,1.2-2.9
						c-0.5-0.7-0.8-1.5-0.8-2.5c0-1.1,0.4-2.1,1.2-2.9s1.8-1.2,2.9-1.2h5.8v13.7H173.5z M173.9,69.3c-0.3,0-0.6,0.1-0.9,0.4
						c-0.2,0.2-0.4,0.5-0.4,0.9c0,0.3,0.1,0.6,0.4,0.9c0.2,0.2,0.5,0.4,0.9,0.4h2.9v-2.5H173.9z M173.5,74.7c-0.3,0-0.6,0.1-0.9,0.4
						c-0.2,0.2-0.4,0.5-0.4,0.9c0,0.3,0.1,0.6,0.4,0.9c0.2,0.2,0.5,0.4,0.9,0.4h3.3v-2.5H173.5z"/>
				</g>
				<g>
					<path class="st2" d="M191.7,70.6c1.1,1.1,1.7,2.5,1.7,4.1c0,1.6-0.6,3-1.7,4.1c-1.1,1.1-2.5,1.7-4.1,1.7c-1.6,0-3-0.6-4.1-1.7
						c-1.1-1.1-1.7-2.5-1.7-4.1c0-1.6,0.6-3,1.7-4.1c1.1-1.1,2.5-1.7,4.1-1.7C189.2,68.9,190.6,69.5,191.7,70.6z M187.6,71.8
						c-0.8,0-1.5,0.3-2.1,0.8c-0.6,0.6-0.8,1.2-0.8,2.1c0,0.8,0.3,1.5,0.8,2c0.6,0.6,1.2,0.9,2.1,0.9c0.8,0,1.5-0.3,2-0.9
						c0.6-0.6,0.9-1.3,0.9-2c0-0.8-0.3-1.5-0.9-2.1C189.1,72.1,188.4,71.8,187.6,71.8z"/>
				</g>
				<g>
					<path class="st2" d="M202.4,80.1l-2.1-2.9l-2.1,2.9h-3.6l3.9-5.3l-4-5.4h3.6l2.2,3l2.2-3h3.6l-4,5.4l3.9,5.3H202.4z"/>
				</g>
			</g>
		</g>
	</g>
</g>
<g>
</g>
<g>
</g>
<g>
</g>
<g>
</g>
<g>
</g>
<g>
</g>
<g>
</g>
<g>
</g>
<g>
</g>
<g>
</g>
<g>
</g>
<g>
</g>
<g>
</g>
<g>
</g>
<g>
</g>
</svg>
