<?xml version="1.0" encoding="utf-8"?>
<!-- Generator: Adobe Illustrator 22.0.1, SVG Export Plug-In . SVG Version: 6.00 Build 0)  -->
<svg version="1.1" id="Capa_1" xmlns="http://www.w3.org/2000/svg" xmlns:xlink="http://www.w3.org/1999/xlink" x="0px" y="0px"
	 viewBox="0 0 22 23.9" style="enable-background:new 0 0 22 23.9;" xml:space="preserve">
<style type="text/css">
	.st0{fill:#FFFFFF;}
</style>
<g>
	<path class="st0" d="M0,10.9c0.1-0.1,0.1-0.2,0.1-0.3C0.5,8.8,2.6,8,4.2,9C4.3,9,4.4,9,4.5,9c1.7-1.1,3.6-1.6,5.6-1.7
		c0,0,0.1,0,0.1,0c0.2,0,0.3-0.1,0.4-0.3c0.5-1.1,0.9-2.2,1.4-3.3c0.2-0.5,0.5-0.7,1-0.5c1.2,0.3,2.4,0.6,3.5,0.8
		c0.1,0,0.2,0,0.3-0.1c0.5-0.6,1.3-0.9,2.1-0.7c0.9,0.2,1.4,0.9,1.5,1.8C20.6,6,19.9,7,18.8,7.1c-1.1,0.2-2.1-0.5-2.3-1.6
		c0-0.1-0.1-0.2-0.2-0.3c-1-0.2-2-0.5-3-0.7c-0.1,0-0.2,0-0.2,0.1c-0.3,0.8-0.7,1.6-1,2.3c-0.1,0.2,0,0.2,0.2,0.2
		c0.9,0.1,1.8,0.2,2.6,0.5c0.9,0.3,1.8,0.7,2.6,1.2c0.1,0.1,0.2,0.1,0.3,0c1.2-0.8,2.7-0.5,3.6,0.6c0.9,1.1,0.8,2.7-0.2,3.7
		c-0.2,0.2-0.3,0.3-0.5,0.4c-0.1,0.1-0.1,0.1-0.1,0.2c0,1.6-0.6,2.9-1.7,4.1c-1.3,1.4-3,2.1-4.9,2.6c-1.5,0.4-3.1,0.4-4.6,0.2
		c-1.5-0.2-3-0.6-4.3-1.4c-1.5-0.8-2.6-2-3.3-3.6c-0.2-0.6-0.4-1.3-0.3-2c0-0.1,0-0.2-0.1-0.3c-0.7-0.4-1-1-1.2-1.8
		c0-0.1,0-0.1,0-0.2C0,11.4,0,11.2,0,10.9z M11,18.9c0.4,0,0.7,0,1.1-0.1c0.8-0.2,1.4-0.5,2.1-0.9c0.3-0.2,0.4-0.5,0.3-0.8
		c-0.1-0.3-0.4-0.5-0.7-0.4c-0.2,0-0.3,0.1-0.4,0.2c-0.7,0.5-1.5,0.7-2.4,0.7c-0.8,0-1.5-0.3-2.2-0.8c-0.3-0.2-0.8-0.1-1,0.2
		c-0.2,0.3-0.1,0.7,0.2,1C8.8,18.6,9.8,18.9,11,18.9z M15.7,13.3c0-0.8-0.6-1.4-1.4-1.4c-0.7,0-1.4,0.6-1.4,1.4
		c0,0.8,0.6,1.4,1.4,1.4C15.1,14.7,15.7,14.1,15.7,13.3z M8.9,13.3c0-0.7-0.6-1.4-1.4-1.4c-0.7,0-1.4,0.6-1.4,1.4
		c0,0.7,0.6,1.4,1.4,1.4C8.3,14.7,8.9,14.1,8.9,13.3z M19.2,5.1c0-0.4-0.3-0.7-0.7-0.7c-0.4,0-0.7,0.3-0.7,0.7
		c0,0.4,0.3,0.7,0.7,0.7C18.9,5.8,19.2,5.5,19.2,5.1z"/>
</g>
<g>
</g>
<g>
</g>
<g>
</g>
<g>
</g>
<g>
</g>
<g>
</g>
<g>
</g>
<g>
</g>
<g>
</g>
<g>
</g>
<g>
</g>
<g>
</g>
<g>
</g>
<g>
</g>
<g>
</g>
</svg>
