<?xml version="1.0" encoding="utf-8"?>
<!-- Generator: Adobe Illustrator 22.0.1, SVG Export Plug-In . SVG Version: 6.00 Build 0)  -->
<svg version="1.1" id="Capa_1" xmlns="http://www.w3.org/2000/svg" xmlns:xlink="http://www.w3.org/1999/xlink" x="0px" y="0px"
	 viewBox="0 0 46.6 44.5" style="enable-background:new 0 0 46.6 44.5;" xml:space="preserve">
<style type="text/css">
	.st0{fill:#FCD73C;}
</style>
<g>
	<g>
		<path class="st0" d="M7.8,41.6c0.6-3.4,1.2-7,1.9-10.5c0.3-1.7,0.1-3-1.4-4.3c-2.4-2-4.5-4.3-6.8-6.5c-1-1-2-1.9-1.4-3.5
			c0.6-1.6,1.9-1.8,3.3-2c3.2-0.5,6.5-0.9,9.7-1.3c1.3-0.2,2.2-0.6,2.8-2c1.4-3.2,3-6.2,4.6-9.4C21.1,1,21.8,0,23.2,0
			c1.4,0,2.2,0.9,2.8,2.1c1.5,3.1,3.2,6.2,4.6,9.4c0.6,1.3,1.4,1.8,2.7,2c3.2,0.4,6.5,0.9,9.7,1.4c1.4,0.2,2.9,0.5,3.4,2.1
			c0.5,1.6-0.5,2.6-1.5,3.5c-2.4,2.4-4.9,4.8-7.3,7.1c-0.8,0.7-1.1,1.4-0.9,2.5c0.7,3.6,1.2,7.1,1.8,10.7c0.2,1.3,0.1,2.5-1.1,3.3
			c-1.1,0.8-2.2,0.5-3.3-0.1c-3.1-1.6-6.2-3.2-9.2-4.9c-1.2-0.7-2.2-0.7-3.4,0c-3.2,1.8-6.5,3.5-9.8,5.1C9.8,45.2,7.8,44,7.8,41.6z"
			/>
	</g>
</g>
<g>
</g>
<g>
</g>
<g>
</g>
<g>
</g>
<g>
</g>
<g>
</g>
<g>
</g>
<g>
</g>
<g>
</g>
<g>
</g>
<g>
</g>
<g>
</g>
<g>
</g>
<g>
</g>
<g>
</g>
</svg>
